<svg width="25" height="29" viewBox="0 0 25 29" fill="none" xmlns="http://www.w3.org/2000/svg">
<path d="M14.9554 23.2143H16.2946C16.4722 23.2143 16.6426 23.1437 16.7682 23.0182C16.8937 22.8926 16.9643 22.7222 16.9643 22.5446V10.4911C16.9643 10.3135 16.8937 10.1431 16.7682 10.0176C16.6426 9.89198 16.4722 9.82143 16.2946 9.82143H14.9554C14.7778 9.82143 14.6074 9.89198 14.4818 10.0176C14.3563 10.1431 14.2857 10.3135 14.2857 10.4911V22.5446C14.2857 22.7222 14.3563 22.8926 14.4818 23.0182C14.6074 23.1437 14.7778 23.2143 14.9554 23.2143ZM24.1071 4.46429H19.5084L17.611 1.30022C17.3729 0.903469 17.0361 0.575163 16.6334 0.347297C16.2307 0.119432 15.7758 -0.000220055 15.3131 3.0382e-07H9.68694C9.22441 -2.72751e-05 8.76975 0.119717 8.36724 0.347572C7.96473 0.575428 7.62808 0.903631 7.39007 1.30022L5.49163 4.46429H0.892857C0.656057 4.46429 0.428955 4.55835 0.261512 4.7258C0.0940686 4.89324 0 5.12034 0 5.35714L0 6.25C0 6.4868 0.0940686 6.7139 0.261512 6.88135C0.428955 7.04879 0.656057 7.14286 0.892857 7.14286H1.78571V25.8929C1.78571 26.6033 2.06792 27.2846 2.57025 27.7869C3.07258 28.2892 3.75388 28.5714 4.46429 28.5714H20.5357C21.2461 28.5714 21.9274 28.2892 22.4298 27.7869C22.9321 27.2846 23.2143 26.6033 23.2143 25.8929V7.14286H24.1071C24.3439 7.14286 24.571 7.04879 24.7385 6.88135C24.9059 6.7139 25 6.4868 25 6.25V5.35714C25 5.12034 24.9059 4.89324 24.7385 4.7258C24.571 4.55835 24.3439 4.46429 24.1071 4.46429ZM9.58929 2.84096C9.61913 2.79129 9.66135 2.75021 9.71182 2.72175C9.76229 2.69329 9.81929 2.67841 9.87723 2.67857H15.1228C15.1806 2.67851 15.2375 2.69343 15.2879 2.72189C15.3382 2.75035 15.3804 2.79137 15.4102 2.84096L16.3845 4.46429H8.61551L9.58929 2.84096ZM20.5357 25.8929H4.46429V7.14286H20.5357V25.8929ZM8.70536 23.2143H10.0446C10.2222 23.2143 10.3926 23.1437 10.5182 23.0182C10.6437 22.8926 10.7143 22.7222 10.7143 22.5446V10.4911C10.7143 10.3135 10.6437 10.1431 10.5182 10.0176C10.3926 9.89198 10.2222 9.82143 10.0446 9.82143H8.70536C8.52776 9.82143 8.35743 9.89198 8.23185 10.0176C8.10627 10.1431 8.03571 10.3135 8.03571 10.4911V22.5446C8.03571 22.7222 8.10627 22.8926 8.23185 23.0182C8.35743 23.1437 8.52776 23.2143 8.70536 23.2143Z" fill="white"/>
</svg>
