<svg width="26" height="20" viewBox="0 0 26 20" fill="none" xmlns="http://www.w3.org/2000/svg">
<path d="M25.2586 10.885L16.9249 19.2187C16.1808 19.9628 14.891 19.442 14.891 18.3754V13.6133H8.14467C7.48492 13.6133 6.95414 13.0825 6.95414 12.4228V7.66062C6.95414 7.00087 7.48492 6.47009 8.14467 6.47009H14.891V1.70795C14.891 0.646387 16.1758 0.120567 16.9249 0.864652L25.2586 9.1984C25.7199 9.66469 25.7199 10.4187 25.2586 10.885ZM10.1289 18.9707V16.9865C10.1289 16.6591 9.86103 16.3912 9.53363 16.3912H5.36676C4.48874 16.3912 3.77937 15.6819 3.77937 14.8038V5.27955C3.77937 4.40153 4.48874 3.69217 5.36676 3.69217H9.53363C9.86103 3.69217 10.1289 3.4243 10.1289 3.09691V1.11268C10.1289 0.785283 9.86103 0.517412 9.53363 0.517412H5.36676C2.73766 0.517412 0.604614 2.65045 0.604614 5.27955V14.8038C0.604614 17.4329 2.73766 19.566 5.36676 19.566H9.53363C9.86103 19.566 10.1289 19.2981 10.1289 18.9707Z" fill="white"/>
</svg>
