<svg width="27" height="21" viewBox="0 0 27 19" fill="none" xmlns="http://www.w3.org/2000/svg">
<g clip-path="url(#clip0_27_88)">
<path fill-rule="evenodd" clip-rule="evenodd" d="M2.98694 5.81139C2.98694 5.06078 3.31943 4.34091 3.91126 3.81014C4.5031 3.27938 5.3058 2.9812 6.14278 2.9812H20.8701C21.707 2.9812 22.5097 3.27938 23.1016 3.81014C23.6934 4.34091 24.0259 5.06078 24.0259 5.81139V15.2454C24.0259 15.996 23.6934 16.7158 23.1016 17.2466C22.5097 17.7774 21.707 18.0755 20.8701 18.0755H12.8048L9.29863 20.434C8.43182 21.0171 7.19473 20.4623 7.19473 19.4906V18.0755H6.14278C5.3058 18.0755 4.5031 17.7774 3.91126 17.2466C3.31943 16.7158 2.98694 15.996 2.98694 15.2454V5.81139ZM6.14278 4.86799C5.86379 4.86799 5.59622 4.96739 5.39894 5.14431C5.20166 5.32123 5.09083 5.56119 5.09083 5.81139V15.2454C5.09083 15.4956 5.20166 15.7355 5.39894 15.9124C5.59622 16.0894 5.86379 16.1887 6.14278 16.1887H7.72071C8.1392 16.1887 8.54055 16.3378 8.83646 16.6032C9.13238 16.8686 9.29863 17.2285 9.29863 17.6038V18.0755L11.5424 16.5661C11.9066 16.3212 12.3496 16.1887 12.8048 16.1887H20.8701C21.1491 16.1887 21.4166 16.0894 21.6139 15.9124C21.8112 15.7355 21.922 15.4956 21.922 15.2454V5.81139C21.922 5.56119 21.8112 5.32123 21.6139 5.14431C21.4166 4.96739 21.1491 4.86799 20.8701 4.86799H6.14278Z" fill="white"/>
</g>
<defs>
<clipPath id="clip0_27_88">
<rect width="25.2468" height="22.6415" fill="white" transform="translate(0.883057 0.151001)"/>
</clipPath>
</defs>
</svg>
