<svg width="25" height="25" viewBox="0 0 25 25" fill="none" xmlns="http://www.w3.org/2000/svg">
<path d="M12.5 4.83871C9.82863 4.83871 7.66129 7.00605 7.66129 9.67742C7.66129 12.3488 9.82863 14.5161 12.5 14.5161C15.1714 14.5161 17.3387 12.3488 17.3387 9.67742C17.3387 7.00605 15.1714 4.83871 12.5 4.83871ZM12.5 12.0968C11.1643 12.0968 10.0806 11.0131 10.0806 9.67742C10.0806 8.34173 11.1643 7.25806 12.5 7.25806C13.8357 7.25806 14.9194 8.34173 14.9194 9.67742C14.9194 11.0131 13.8357 12.0968 12.5 12.0968ZM12.5 0C5.59476 0 0 5.59476 0 12.5C0 19.4052 5.59476 25 12.5 25C19.4052 25 25 19.4052 25 12.5C25 5.59476 19.4052 0 12.5 0ZM12.5 22.5806C9.99496 22.5806 7.70665 21.6583 5.94254 20.1411C6.69355 18.9819 7.97883 18.1956 9.4506 18.1502C10.499 18.4728 11.497 18.6341 12.5 18.6341C13.503 18.6341 14.501 18.4778 15.5494 18.1502C17.0212 18.2006 18.3065 18.9819 19.0575 20.1411C17.2933 21.6583 15.005 22.5806 12.5 22.5806ZM20.7006 18.3417C19.4708 16.7591 17.5706 15.7258 15.4032 15.7258C14.8891 15.7258 14.0927 16.2097 12.5 16.2097C10.9123 16.2097 10.1109 15.7258 9.59677 15.7258C7.43448 15.7258 5.53427 16.7591 4.2994 18.3417C3.11996 16.6935 2.41935 14.6774 2.41935 12.5C2.41935 6.94052 6.94052 2.41935 12.5 2.41935C18.0595 2.41935 22.5806 6.94052 22.5806 12.5C22.5806 14.6774 21.88 16.6935 20.7006 18.3417Z" fill="white"/>
</svg>
